<?xml version="1.0" encoding="UTF-8" standalone="no"?>
<!DOCTYPE svg PUBLIC "-//W3C//DTD SVG 1.1//EN"
 "http://www.w3.org/Graphics/SVG/1.1/DTD/svg11.dtd">
<!-- Generated by graphviz version 2.26.3 (20100126.1600)
 -->
<!-- Title: controllers_diagram Pages: 1 -->
<svg width="1160pt" height="1118pt"
 viewBox="0.00 0.00 1160.00 1118.00" xmlns="http://www.w3.org/2000/svg" xmlns:xlink="http://www.w3.org/1999/xlink">
<g id="graph1" class="graph" transform="scale(1 1) rotate(0) translate(4 1114)">
<title>controllers_diagram</title>
<polygon fill="white" stroke="white" points="-4,5 -4,-1114 1157,-1114 1157,5 -4,5"/>
<!-- _diagram_info -->
<g id="node1" class="node"><title>_diagram_info</title>
<text text-anchor="start" x="909" y="-353.3" font-family="Times Roman,serif" font-size="13.00">Controllers diagram</text>
<text text-anchor="start" x="909" y="-336.3" font-family="Times Roman,serif" font-size="13.00">Date: Jan 18 2012 &#45; 20:19</text>
<text text-anchor="start" x="909" y="-319.3" font-family="Times Roman,serif" font-size="13.00">Migration version: 20111026121940</text>
<text text-anchor="start" x="909" y="-302.3" font-family="Times Roman,serif" font-size="13.00">Generated by RailRoady 1.0.4</text>
<text text-anchor="start" x="909" y="-285.3" font-family="Times Roman,serif" font-size="13.00">http://railroady.prestonlee.com</text>
</g>
<!-- ApplicationController -->
<g id="node2" class="node"><title>ApplicationController</title>
<polyline fill="none" stroke="black" points="463,-101.5 677,-101.5 "/>
<path fill="none" stroke="black" d="M677,-101.5C683,-101.5 689,-107.5 689,-113.5"/>
<polyline fill="none" stroke="black" points="689,-113.5 689,-227.5 "/>
<path fill="none" stroke="black" d="M689,-227.5C689,-233.5 683,-239.5 677,-239.5"/>
<polyline fill="none" stroke="black" points="677,-239.5 463,-239.5 "/>
<path fill="none" stroke="black" d="M463,-239.5C457,-239.5 451,-233.5 451,-227.5"/>
<polyline fill="none" stroke="black" points="451,-227.5 451,-113.5 "/>
<path fill="none" stroke="black" d="M451,-113.5C451,-107.5 457,-101.5 463,-101.5"/>
<text text-anchor="middle" x="570" y="-222.9" font-family="Times Roman,serif" font-size="14.00">ApplicationController</text>
<polyline fill="none" stroke="black" points="451,-213.5 689,-213.5 "/>
<text text-anchor="start" x="459" y="-196.9" font-family="Times Roman,serif" font-size="14.00">_one_time_conditions_valid_38?</text>
<text text-anchor="start" x="459" y="-178.9" font-family="Times Roman,serif" font-size="14.00">after_sign_in_path_for</text>
<polyline fill="none" stroke="black" points="451,-169.5 689,-169.5 "/>
<polyline fill="none" stroke="black" points="451,-145.5 689,-145.5 "/>
<text text-anchor="start" x="459" y="-128.9" font-family="Times Roman,serif" font-size="14.00">_layout</text>
<text text-anchor="start" x="459" y="-110.9" font-family="Times Roman,serif" font-size="14.00">_run_process_action_callbacks</text>
</g>
<!-- LinkerController -->
<g id="node3" class="node"><title>LinkerController</title>
<polyline fill="none" stroke="black" points="738,-926.5 842,-926.5 "/>
<path fill="none" stroke="black" d="M842,-926.5C848,-926.5 854,-932.5 854,-938.5"/>
<polyline fill="none" stroke="black" points="854,-938.5 854,-1034.5 "/>
<path fill="none" stroke="black" d="M854,-1034.5C854,-1040.5 848,-1046.5 842,-1046.5"/>
<polyline fill="none" stroke="black" points="842,-1046.5 738,-1046.5 "/>
<path fill="none" stroke="black" d="M738,-1046.5C732,-1046.5 726,-1040.5 726,-1034.5"/>
<polyline fill="none" stroke="black" points="726,-1034.5 726,-938.5 "/>
<path fill="none" stroke="black" d="M726,-938.5C726,-932.5 732,-926.5 738,-926.5"/>
<text text-anchor="middle" x="790" y="-1029.9" font-family="Times Roman,serif" font-size="14.00">LinkerController</text>
<polyline fill="none" stroke="black" points="726,-1020.5 854,-1020.5 "/>
<text text-anchor="start" x="734" y="-1003.9" font-family="Times Roman,serif" font-size="14.00">destroy</text>
<text text-anchor="start" x="734" y="-985.9" font-family="Times Roman,serif" font-size="14.00">forward</text>
<polyline fill="none" stroke="black" points="726,-976.5 854,-976.5 "/>
<polyline fill="none" stroke="black" points="726,-952.5 854,-952.5 "/>
<text text-anchor="start" x="734" y="-935.9" font-family="Times Roman,serif" font-size="14.00">_layout</text>
</g>
<!-- Admin::BlockController -->
<g id="node4" class="node"><title>Admin::BlockController</title>
<polyline fill="none" stroke="black" points="638,-276.5 852,-276.5 "/>
<path fill="none" stroke="black" d="M852,-276.5C858,-276.5 864,-282.5 864,-288.5"/>
<polyline fill="none" stroke="black" points="864,-288.5 864,-546.5 "/>
<path fill="none" stroke="black" d="M864,-546.5C864,-552.5 858,-558.5 852,-558.5"/>
<polyline fill="none" stroke="black" points="852,-558.5 638,-558.5 "/>
<path fill="none" stroke="black" d="M638,-558.5C632,-558.5 626,-552.5 626,-546.5"/>
<polyline fill="none" stroke="black" points="626,-546.5 626,-288.5 "/>
<path fill="none" stroke="black" d="M626,-288.5C626,-282.5 632,-276.5 638,-276.5"/>
<text text-anchor="middle" x="745" y="-541.9" font-family="Times Roman,serif" font-size="14.00">Admin::BlockController</text>
<polyline fill="none" stroke="black" points="626,-532.5 864,-532.5 "/>
<text text-anchor="start" x="634" y="-515.9" font-family="Times Roman,serif" font-size="14.00">_callback_before_41</text>
<text text-anchor="start" x="634" y="-497.9" font-family="Times Roman,serif" font-size="14.00">_one_time_conditions_valid_42?</text>
<text text-anchor="start" x="634" y="-479.9" font-family="Times Roman,serif" font-size="14.00">create</text>
<text text-anchor="start" x="634" y="-461.9" font-family="Times Roman,serif" font-size="14.00">destroy</text>
<text text-anchor="start" x="634" y="-443.9" font-family="Times Roman,serif" font-size="14.00">edit</text>
<text text-anchor="start" x="634" y="-425.9" font-family="Times Roman,serif" font-size="14.00">index</text>
<text text-anchor="start" x="634" y="-407.9" font-family="Times Roman,serif" font-size="14.00">new</text>
<text text-anchor="start" x="634" y="-389.9" font-family="Times Roman,serif" font-size="14.00">show</text>
<text text-anchor="start" x="634" y="-371.9" font-family="Times Roman,serif" font-size="14.00">sorter</text>
<text text-anchor="start" x="634" y="-353.9" font-family="Times Roman,serif" font-size="14.00">update</text>
<polyline fill="none" stroke="black" points="626,-344.5 864,-344.5 "/>
<polyline fill="none" stroke="black" points="626,-320.5 864,-320.5 "/>
<text text-anchor="start" x="634" y="-303.9" font-family="Times Roman,serif" font-size="14.00">_layout</text>
<text text-anchor="start" x="634" y="-285.9" font-family="Times Roman,serif" font-size="14.00">_run_process_action_callbacks</text>
</g>
<!-- Admin::UserController -->
<g id="node5" class="node"><title>Admin::UserController</title>
<polyline fill="none" stroke="black" points="638,-601.5 852,-601.5 "/>
<path fill="none" stroke="black" d="M852,-601.5C858,-601.5 864,-607.5 864,-613.5"/>
<polyline fill="none" stroke="black" points="864,-613.5 864,-871.5 "/>
<path fill="none" stroke="black" d="M864,-871.5C864,-877.5 858,-883.5 852,-883.5"/>
<polyline fill="none" stroke="black" points="852,-883.5 638,-883.5 "/>
<path fill="none" stroke="black" d="M638,-883.5C632,-883.5 626,-877.5 626,-871.5"/>
<polyline fill="none" stroke="black" points="626,-871.5 626,-613.5 "/>
<path fill="none" stroke="black" d="M626,-613.5C626,-607.5 632,-601.5 638,-601.5"/>
<text text-anchor="middle" x="745" y="-866.9" font-family="Times Roman,serif" font-size="14.00">Admin::UserController</text>
<polyline fill="none" stroke="black" points="626,-857.5 864,-857.5 "/>
<text text-anchor="start" x="634" y="-840.9" font-family="Times Roman,serif" font-size="14.00">_callback_before_43</text>
<text text-anchor="start" x="634" y="-822.9" font-family="Times Roman,serif" font-size="14.00">_one_time_conditions_valid_44?</text>
<text text-anchor="start" x="634" y="-804.9" font-family="Times Roman,serif" font-size="14.00">create</text>
<text text-anchor="start" x="634" y="-786.9" font-family="Times Roman,serif" font-size="14.00">destroy</text>
<text text-anchor="start" x="634" y="-768.9" font-family="Times Roman,serif" font-size="14.00">edit</text>
<text text-anchor="start" x="634" y="-750.9" font-family="Times Roman,serif" font-size="14.00">index</text>
<text text-anchor="start" x="634" y="-732.9" font-family="Times Roman,serif" font-size="14.00">new</text>
<text text-anchor="start" x="634" y="-714.9" font-family="Times Roman,serif" font-size="14.00">roles</text>
<text text-anchor="start" x="634" y="-696.9" font-family="Times Roman,serif" font-size="14.00">show</text>
<text text-anchor="start" x="634" y="-678.9" font-family="Times Roman,serif" font-size="14.00">update</text>
<polyline fill="none" stroke="black" points="626,-669.5 864,-669.5 "/>
<polyline fill="none" stroke="black" points="626,-645.5 864,-645.5 "/>
<text text-anchor="start" x="634" y="-628.9" font-family="Times Roman,serif" font-size="14.00">_layout</text>
<text text-anchor="start" x="634" y="-610.9" font-family="Times Roman,serif" font-size="14.00">_run_process_action_callbacks</text>
</g>
<!-- Admin::NavigatorController -->
<g id="node6" class="node"><title>Admin::NavigatorController</title>
<polyline fill="none" stroke="black" points="363,-676.5 577,-676.5 "/>
<path fill="none" stroke="black" d="M577,-676.5C583,-676.5 589,-682.5 589,-688.5"/>
<polyline fill="none" stroke="black" points="589,-688.5 589,-946.5 "/>
<path fill="none" stroke="black" d="M589,-946.5C589,-952.5 583,-958.5 577,-958.5"/>
<polyline fill="none" stroke="black" points="577,-958.5 363,-958.5 "/>
<path fill="none" stroke="black" d="M363,-958.5C357,-958.5 351,-952.5 351,-946.5"/>
<polyline fill="none" stroke="black" points="351,-946.5 351,-688.5 "/>
<path fill="none" stroke="black" d="M351,-688.5C351,-682.5 357,-676.5 363,-676.5"/>
<text text-anchor="middle" x="470" y="-941.9" font-family="Times Roman,serif" font-size="14.00">Admin::NavigatorController</text>
<polyline fill="none" stroke="black" points="351,-932.5 589,-932.5 "/>
<text text-anchor="start" x="359" y="-915.9" font-family="Times Roman,serif" font-size="14.00">_callback_before_45</text>
<text text-anchor="start" x="359" y="-897.9" font-family="Times Roman,serif" font-size="14.00">_one_time_conditions_valid_46?</text>
<text text-anchor="start" x="359" y="-879.9" font-family="Times Roman,serif" font-size="14.00">create</text>
<text text-anchor="start" x="359" y="-861.9" font-family="Times Roman,serif" font-size="14.00">destroy</text>
<text text-anchor="start" x="359" y="-843.9" font-family="Times Roman,serif" font-size="14.00">edit</text>
<text text-anchor="start" x="359" y="-825.9" font-family="Times Roman,serif" font-size="14.00">index</text>
<text text-anchor="start" x="359" y="-807.9" font-family="Times Roman,serif" font-size="14.00">new</text>
<text text-anchor="start" x="359" y="-789.9" font-family="Times Roman,serif" font-size="14.00">show</text>
<text text-anchor="start" x="359" y="-771.9" font-family="Times Roman,serif" font-size="14.00">sorter</text>
<text text-anchor="start" x="359" y="-753.9" font-family="Times Roman,serif" font-size="14.00">update</text>
<polyline fill="none" stroke="black" points="351,-744.5 589,-744.5 "/>
<polyline fill="none" stroke="black" points="351,-720.5 589,-720.5 "/>
<text text-anchor="start" x="359" y="-703.9" font-family="Times Roman,serif" font-size="14.00">_layout</text>
<text text-anchor="start" x="359" y="-685.9" font-family="Times Roman,serif" font-size="14.00">_run_process_action_callbacks</text>
</g>
<!-- Admin::BannerController -->
<g id="node7" class="node"><title>Admin::BannerController</title>
<polyline fill="none" stroke="black" points="63,-451.5 277,-451.5 "/>
<path fill="none" stroke="black" d="M277,-451.5C283,-451.5 289,-457.5 289,-463.5"/>
<polyline fill="none" stroke="black" points="289,-463.5 289,-703.5 "/>
<path fill="none" stroke="black" d="M289,-703.5C289,-709.5 283,-715.5 277,-715.5"/>
<polyline fill="none" stroke="black" points="277,-715.5 63,-715.5 "/>
<path fill="none" stroke="black" d="M63,-715.5C57,-715.5 51,-709.5 51,-703.5"/>
<polyline fill="none" stroke="black" points="51,-703.5 51,-463.5 "/>
<path fill="none" stroke="black" d="M51,-463.5C51,-457.5 57,-451.5 63,-451.5"/>
<text text-anchor="middle" x="170" y="-698.9" font-family="Times Roman,serif" font-size="14.00">Admin::BannerController</text>
<polyline fill="none" stroke="black" points="51,-689.5 289,-689.5 "/>
<text text-anchor="start" x="59" y="-672.9" font-family="Times Roman,serif" font-size="14.00">_callback_before_47</text>
<text text-anchor="start" x="59" y="-654.9" font-family="Times Roman,serif" font-size="14.00">_one_time_conditions_valid_48?</text>
<text text-anchor="start" x="59" y="-636.9" font-family="Times Roman,serif" font-size="14.00">create</text>
<text text-anchor="start" x="59" y="-618.9" font-family="Times Roman,serif" font-size="14.00">destroy</text>
<text text-anchor="start" x="59" y="-600.9" font-family="Times Roman,serif" font-size="14.00">edit</text>
<text text-anchor="start" x="59" y="-582.9" font-family="Times Roman,serif" font-size="14.00">index</text>
<text text-anchor="start" x="59" y="-564.9" font-family="Times Roman,serif" font-size="14.00">new</text>
<text text-anchor="start" x="59" y="-546.9" font-family="Times Roman,serif" font-size="14.00">show</text>
<text text-anchor="start" x="59" y="-528.9" font-family="Times Roman,serif" font-size="14.00">update</text>
<polyline fill="none" stroke="black" points="51,-519.5 289,-519.5 "/>
<polyline fill="none" stroke="black" points="51,-495.5 289,-495.5 "/>
<text text-anchor="start" x="59" y="-478.9" font-family="Times Roman,serif" font-size="14.00">_layout</text>
<text text-anchor="start" x="59" y="-460.9" font-family="Times Roman,serif" font-size="14.00">_run_process_action_callbacks</text>
</g>
<!-- Admin::BaseController -->
<g id="node8" class="node"><title>Admin::BaseController</title>
<polyline fill="none" stroke="black" points="738,-76.5 952,-76.5 "/>
<path fill="none" stroke="black" d="M952,-76.5C958,-76.5 964,-82.5 964,-88.5"/>
<polyline fill="none" stroke="black" points="964,-88.5 964,-220.5 "/>
<path fill="none" stroke="black" d="M964,-220.5C964,-226.5 958,-232.5 952,-232.5"/>
<polyline fill="none" stroke="black" points="952,-232.5 738,-232.5 "/>
<path fill="none" stroke="black" d="M738,-232.5C732,-232.5 726,-226.5 726,-220.5"/>
<polyline fill="none" stroke="black" points="726,-220.5 726,-88.5 "/>
<path fill="none" stroke="black" d="M726,-88.5C726,-82.5 732,-76.5 738,-76.5"/>
<text text-anchor="middle" x="845" y="-215.9" font-family="Times Roman,serif" font-size="14.00">Admin::BaseController</text>
<polyline fill="none" stroke="black" points="726,-206.5 964,-206.5 "/>
<text text-anchor="start" x="734" y="-189.9" font-family="Times Roman,serif" font-size="14.00">_one_time_conditions_valid_40?</text>
<text text-anchor="start" x="734" y="-171.9" font-family="Times Roman,serif" font-size="14.00">compute_layout</text>
<text text-anchor="start" x="734" y="-153.9" font-family="Times Roman,serif" font-size="14.00">index</text>
<polyline fill="none" stroke="black" points="726,-144.5 964,-144.5 "/>
<polyline fill="none" stroke="black" points="726,-120.5 964,-120.5 "/>
<text text-anchor="start" x="734" y="-103.9" font-family="Times Roman,serif" font-size="14.00">_layout</text>
<text text-anchor="start" x="734" y="-85.9" font-family="Times Roman,serif" font-size="14.00">_run_process_action_callbacks</text>
</g>
<!-- Admin::IssueController -->
<g id="node9" class="node"><title>Admin::IssueController</title>
<polyline fill="none" stroke="black" points="88,-826.5 302,-826.5 "/>
<path fill="none" stroke="black" d="M302,-826.5C308,-826.5 314,-832.5 314,-838.5"/>
<polyline fill="none" stroke="black" points="314,-838.5 314,-1096.5 "/>
<path fill="none" stroke="black" d="M314,-1096.5C314,-1102.5 308,-1108.5 302,-1108.5"/>
<polyline fill="none" stroke="black" points="302,-1108.5 88,-1108.5 "/>
<path fill="none" stroke="black" d="M88,-1108.5C82,-1108.5 76,-1102.5 76,-1096.5"/>
<polyline fill="none" stroke="black" points="76,-1096.5 76,-838.5 "/>
<path fill="none" stroke="black" d="M76,-838.5C76,-832.5 82,-826.5 88,-826.5"/>
<text text-anchor="middle" x="195" y="-1091.9" font-family="Times Roman,serif" font-size="14.00">Admin::IssueController</text>
<polyline fill="none" stroke="black" points="76,-1082.5 314,-1082.5 "/>
<text text-anchor="start" x="84" y="-1065.9" font-family="Times Roman,serif" font-size="14.00">_callback_before_49</text>
<text text-anchor="start" x="84" y="-1047.9" font-family="Times Roman,serif" font-size="14.00">_one_time_conditions_valid_50?</text>
<text text-anchor="start" x="84" y="-1029.9" font-family="Times Roman,serif" font-size="14.00">create</text>
<text text-anchor="start" x="84" y="-1011.9" font-family="Times Roman,serif" font-size="14.00">destroy</text>
<text text-anchor="start" x="84" y="-993.9" font-family="Times Roman,serif" font-size="14.00">edit</text>
<text text-anchor="start" x="84" y="-975.9" font-family="Times Roman,serif" font-size="14.00">index</text>
<text text-anchor="start" x="84" y="-957.9" font-family="Times Roman,serif" font-size="14.00">new</text>
<text text-anchor="start" x="84" y="-939.9" font-family="Times Roman,serif" font-size="14.00">reproc</text>
<text text-anchor="start" x="84" y="-921.9" font-family="Times Roman,serif" font-size="14.00">show</text>
<text text-anchor="start" x="84" y="-903.9" font-family="Times Roman,serif" font-size="14.00">update</text>
<polyline fill="none" stroke="black" points="76,-894.5 314,-894.5 "/>
<polyline fill="none" stroke="black" points="76,-870.5 314,-870.5 "/>
<text text-anchor="start" x="84" y="-853.9" font-family="Times Roman,serif" font-size="14.00">_layout</text>
<text text-anchor="start" x="84" y="-835.9" font-family="Times Roman,serif" font-size="14.00">_run_process_action_callbacks</text>
</g>
<!-- Admin::ArticleController -->
<g id="node10" class="node"><title>Admin::ArticleController</title>
<polyline fill="none" stroke="black" points="338,-276.5 565,-276.5 "/>
<path fill="none" stroke="black" d="M565,-276.5C571,-276.5 577,-282.5 577,-288.5"/>
<polyline fill="none" stroke="black" points="577,-288.5 577,-618.5 "/>
<path fill="none" stroke="black" d="M577,-618.5C577,-624.5 571,-630.5 565,-630.5"/>
<polyline fill="none" stroke="black" points="565,-630.5 338,-630.5 "/>
<path fill="none" stroke="black" d="M338,-630.5C332,-630.5 326,-624.5 326,-618.5"/>
<polyline fill="none" stroke="black" points="326,-618.5 326,-288.5 "/>
<path fill="none" stroke="black" d="M326,-288.5C326,-282.5 332,-276.5 338,-276.5"/>
<text text-anchor="middle" x="451.5" y="-613.9" font-family="Times Roman,serif" font-size="14.00">Admin::ArticleController</text>
<polyline fill="none" stroke="black" points="326,-604.5 577,-604.5 "/>
<text text-anchor="start" x="334" y="-587.9" font-family="Times Roman,serif" font-size="14.00">_callback_around_157</text>
<text text-anchor="start" x="334" y="-569.9" font-family="Times Roman,serif" font-size="14.00">_callback_around_157_object</text>
<text text-anchor="start" x="334" y="-551.9" font-family="Times Roman,serif" font-size="14.00">_callback_before_51</text>
<text text-anchor="start" x="334" y="-533.9" font-family="Times Roman,serif" font-size="14.00">_conditional_callback_around_159</text>
<text text-anchor="start" x="334" y="-515.9" font-family="Times Roman,serif" font-size="14.00">_one_time_conditions_valid_158?</text>
<text text-anchor="start" x="334" y="-497.9" font-family="Times Roman,serif" font-size="14.00">_one_time_conditions_valid_52?</text>
<text text-anchor="start" x="334" y="-479.9" font-family="Times Roman,serif" font-size="14.00">create</text>
<text text-anchor="start" x="334" y="-461.9" font-family="Times Roman,serif" font-size="14.00">destroy</text>
<text text-anchor="start" x="334" y="-443.9" font-family="Times Roman,serif" font-size="14.00">edit</text>
<text text-anchor="start" x="334" y="-425.9" font-family="Times Roman,serif" font-size="14.00">index</text>
<text text-anchor="start" x="334" y="-407.9" font-family="Times Roman,serif" font-size="14.00">new</text>
<text text-anchor="start" x="334" y="-389.9" font-family="Times Roman,serif" font-size="14.00">reproc</text>
<text text-anchor="start" x="334" y="-371.9" font-family="Times Roman,serif" font-size="14.00">show</text>
<text text-anchor="start" x="334" y="-353.9" font-family="Times Roman,serif" font-size="14.00">update</text>
<polyline fill="none" stroke="black" points="326,-344.5 577,-344.5 "/>
<polyline fill="none" stroke="black" points="326,-320.5 577,-320.5 "/>
<text text-anchor="start" x="334" y="-303.9" font-family="Times Roman,serif" font-size="14.00">_layout</text>
<text text-anchor="start" x="334" y="-285.9" font-family="Times Roman,serif" font-size="14.00">_run_process_action_callbacks</text>
</g>
<!-- Admin::CategoryController -->
<g id="node11" class="node"><title>Admin::CategoryController</title>
<polyline fill="none" stroke="black" points="38,-151.5 261,-151.5 "/>
<path fill="none" stroke="black" d="M261,-151.5C267,-151.5 273,-157.5 273,-163.5"/>
<polyline fill="none" stroke="black" points="273,-163.5 273,-403.5 "/>
<path fill="none" stroke="black" d="M273,-403.5C273,-409.5 267,-415.5 261,-415.5"/>
<polyline fill="none" stroke="black" points="261,-415.5 38,-415.5 "/>
<path fill="none" stroke="black" d="M38,-415.5C32,-415.5 26,-409.5 26,-403.5"/>
<polyline fill="none" stroke="black" points="26,-403.5 26,-163.5 "/>
<path fill="none" stroke="black" d="M26,-163.5C26,-157.5 32,-151.5 38,-151.5"/>
<text text-anchor="middle" x="149.5" y="-398.9" font-family="Times Roman,serif" font-size="14.00">Admin::CategoryController</text>
<polyline fill="none" stroke="black" points="26,-389.5 273,-389.5 "/>
<text text-anchor="start" x="34" y="-372.9" font-family="Times Roman,serif" font-size="14.00">_callback_before_160</text>
<text text-anchor="start" x="34" y="-354.9" font-family="Times Roman,serif" font-size="14.00">_one_time_conditions_valid_161?</text>
<text text-anchor="start" x="34" y="-336.9" font-family="Times Roman,serif" font-size="14.00">create</text>
<text text-anchor="start" x="34" y="-318.9" font-family="Times Roman,serif" font-size="14.00">destroy</text>
<text text-anchor="start" x="34" y="-300.9" font-family="Times Roman,serif" font-size="14.00">edit</text>
<text text-anchor="start" x="34" y="-282.9" font-family="Times Roman,serif" font-size="14.00">index</text>
<text text-anchor="start" x="34" y="-264.9" font-family="Times Roman,serif" font-size="14.00">new</text>
<text text-anchor="start" x="34" y="-246.9" font-family="Times Roman,serif" font-size="14.00">show</text>
<text text-anchor="start" x="34" y="-228.9" font-family="Times Roman,serif" font-size="14.00">update</text>
<polyline fill="none" stroke="black" points="26,-219.5 273,-219.5 "/>
<polyline fill="none" stroke="black" points="26,-195.5 273,-195.5 "/>
<text text-anchor="start" x="34" y="-178.9" font-family="Times Roman,serif" font-size="14.00">_layout</text>
<text text-anchor="start" x="34" y="-160.9" font-family="Times Roman,serif" font-size="14.00">_run_process_action_callbacks</text>
</g>
<!-- SearchController -->
<g id="node12" class="node"><title>SearchController</title>
<polyline fill="none" stroke="black" points="13,-1.5 122,-1.5 "/>
<path fill="none" stroke="black" d="M122,-1.5C128,-1.5 134,-7.5 134,-13.5"/>
<polyline fill="none" stroke="black" points="134,-13.5 134,-91.5 "/>
<path fill="none" stroke="black" d="M134,-91.5C134,-97.5 128,-103.5 122,-103.5"/>
<polyline fill="none" stroke="black" points="122,-103.5 13,-103.5 "/>
<path fill="none" stroke="black" d="M13,-103.5C7,-103.5 1,-97.5 1,-91.5"/>
<polyline fill="none" stroke="black" points="1,-91.5 1,-13.5 "/>
<path fill="none" stroke="black" d="M1,-13.5C1,-7.5 7,-1.5 13,-1.5"/>
<text text-anchor="middle" x="67.5" y="-86.9" font-family="Times Roman,serif" font-size="14.00">SearchController</text>
<polyline fill="none" stroke="black" points="1,-77.5 134,-77.5 "/>
<text text-anchor="start" x="9" y="-60.9" font-family="Times Roman,serif" font-size="14.00">index</text>
<polyline fill="none" stroke="black" points="1,-51.5 134,-51.5 "/>
<polyline fill="none" stroke="black" points="1,-27.5 134,-27.5 "/>
<text text-anchor="start" x="9" y="-10.9" font-family="Times Roman,serif" font-size="14.00">_layout</text>
</g>
<!-- JavascriptsController -->
<g id="node13" class="node"><title>JavascriptsController</title>
<polyline fill="none" stroke="black" points="913,-426.5 1048,-426.5 "/>
<path fill="none" stroke="black" d="M1048,-426.5C1054,-426.5 1060,-432.5 1060,-438.5"/>
<polyline fill="none" stroke="black" points="1060,-438.5 1060,-588.5 "/>
<path fill="none" stroke="black" d="M1060,-588.5C1060,-594.5 1054,-600.5 1048,-600.5"/>
<polyline fill="none" stroke="black" points="1048,-600.5 913,-600.5 "/>
<path fill="none" stroke="black" d="M913,-600.5C907,-600.5 901,-594.5 901,-588.5"/>
<polyline fill="none" stroke="black" points="901,-588.5 901,-438.5 "/>
<path fill="none" stroke="black" d="M901,-438.5C901,-432.5 907,-426.5 913,-426.5"/>
<text text-anchor="middle" x="980.5" y="-583.9" font-family="Times Roman,serif" font-size="14.00">JavascriptsController</text>
<polyline fill="none" stroke="black" points="901,-574.5 1060,-574.5 "/>
<text text-anchor="start" x="909" y="-557.9" font-family="Times Roman,serif" font-size="14.00">date_picker</text>
<text text-anchor="start" x="909" y="-539.9" font-family="Times Roman,serif" font-size="14.00">dynamic_categories</text>
<text text-anchor="start" x="909" y="-521.9" font-family="Times Roman,serif" font-size="14.00">dynamic_dates</text>
<text text-anchor="start" x="909" y="-503.9" font-family="Times Roman,serif" font-size="14.00">misc</text>
<text text-anchor="start" x="909" y="-485.9" font-family="Times Roman,serif" font-size="14.00">sortable_list</text>
<polyline fill="none" stroke="black" points="901,-476.5 1060,-476.5 "/>
<polyline fill="none" stroke="black" points="901,-452.5 1060,-452.5 "/>
<text text-anchor="start" x="909" y="-435.9" font-family="Times Roman,serif" font-size="14.00">_layout</text>
</g>
<!-- MobileController -->
<g id="node14" class="node"><title>MobileController</title>
<polyline fill="none" stroke="black" points="913,-651.5 1019,-651.5 "/>
<path fill="none" stroke="black" d="M1019,-651.5C1025,-651.5 1031,-657.5 1031,-663.5"/>
<polyline fill="none" stroke="black" points="1031,-663.5 1031,-777.5 "/>
<path fill="none" stroke="black" d="M1031,-777.5C1031,-783.5 1025,-789.5 1019,-789.5"/>
<polyline fill="none" stroke="black" points="1019,-789.5 913,-789.5 "/>
<path fill="none" stroke="black" d="M913,-789.5C907,-789.5 901,-783.5 901,-777.5"/>
<polyline fill="none" stroke="black" points="901,-777.5 901,-663.5 "/>
<path fill="none" stroke="black" d="M901,-663.5C901,-657.5 907,-651.5 913,-651.5"/>
<text text-anchor="middle" x="966" y="-772.9" font-family="Times Roman,serif" font-size="14.00">MobileController</text>
<polyline fill="none" stroke="black" points="901,-763.5 1031,-763.5 "/>
<text text-anchor="start" x="909" y="-746.9" font-family="Times Roman,serif" font-size="14.00">article</text>
<text text-anchor="start" x="909" y="-728.9" font-family="Times Roman,serif" font-size="14.00">category</text>
<text text-anchor="start" x="909" y="-710.9" font-family="Times Roman,serif" font-size="14.00">menu</text>
<polyline fill="none" stroke="black" points="901,-701.5 1031,-701.5 "/>
<polyline fill="none" stroke="black" points="901,-677.5 1031,-677.5 "/>
<text text-anchor="start" x="909" y="-660.9" font-family="Times Roman,serif" font-size="14.00">_layout</text>
</g>
<!-- AjaxHandlerController -->
<g id="node15" class="node"><title>AjaxHandlerController</title>
<polyline fill="none" stroke="black" points="913,-826.5 1059,-826.5 "/>
<path fill="none" stroke="black" d="M1059,-826.5C1065,-826.5 1071,-832.5 1071,-838.5"/>
<polyline fill="none" stroke="black" points="1071,-838.5 1071,-916.5 "/>
<path fill="none" stroke="black" d="M1071,-916.5C1071,-922.5 1065,-928.5 1059,-928.5"/>
<polyline fill="none" stroke="black" points="1059,-928.5 913,-928.5 "/>
<path fill="none" stroke="black" d="M913,-928.5C907,-928.5 901,-922.5 901,-916.5"/>
<polyline fill="none" stroke="black" points="901,-916.5 901,-838.5 "/>
<path fill="none" stroke="black" d="M901,-838.5C901,-832.5 907,-826.5 913,-826.5"/>
<text text-anchor="middle" x="986" y="-911.9" font-family="Times Roman,serif" font-size="14.00">AjaxHandlerController</text>
<polyline fill="none" stroke="black" points="901,-902.5 1071,-902.5 "/>
<text text-anchor="start" x="909" y="-885.9" font-family="Times Roman,serif" font-size="14.00">search_issues</text>
<polyline fill="none" stroke="black" points="901,-876.5 1071,-876.5 "/>
<polyline fill="none" stroke="black" points="901,-852.5 1071,-852.5 "/>
<text text-anchor="start" x="909" y="-835.9" font-family="Times Roman,serif" font-size="14.00">_layout</text>
</g>
</g>
</svg>
