<?xml version="1.0" encoding="UTF-8" standalone="no"?>
<!DOCTYPE svg PUBLIC "-//W3C//DTD SVG 1.1//EN"
 "http://www.w3.org/Graphics/SVG/1.1/DTD/svg11.dtd">
<!-- Generated by graphviz version 2.26.3 (20100126.1600)
 -->
<!-- Title: models_diagram Pages: 1 -->
<svg width="1555pt" height="782pt"
 viewBox="0.00 0.00 1555.00 782.00" xmlns="http://www.w3.org/2000/svg" xmlns:xlink="http://www.w3.org/1999/xlink">
<g id="graph1" class="graph" transform="scale(1 1) rotate(0) translate(4 778)">
<title>models_diagram</title>
<polygon fill="white" stroke="white" points="-4,5 -4,-778 1552,-778 1552,5 -4,5"/>
<!-- _diagram_info -->
<g id="node1" class="node"><title>_diagram_info</title>
<text text-anchor="start" x="15" y="-669.8" font-family="Times Roman,serif" font-size="13.00">Models diagram</text>
<text text-anchor="start" x="15" y="-652.8" font-family="Times Roman,serif" font-size="13.00">Date: Jan 18 2012 &#45; 20:19</text>
<text text-anchor="start" x="15" y="-635.8" font-family="Times Roman,serif" font-size="13.00">Migration version: 20111026121940</text>
<text text-anchor="start" x="15" y="-618.8" font-family="Times Roman,serif" font-size="13.00">Generated by RailRoady 1.0.4</text>
<text text-anchor="start" x="15" y="-601.8" font-family="Times Roman,serif" font-size="13.00">http://railroady.prestonlee.com</text>
</g>
<!-- CurrentIssue -->
<g id="node2" class="node"><title>CurrentIssue</title>
<polyline fill="none" stroke="black" points="396.5,-307 537.5,-307 "/>
<path fill="none" stroke="black" d="M537.5,-307C543.5,-307 549.5,-313 549.5,-319"/>
<polyline fill="none" stroke="black" points="549.5,-319 549.5,-365 "/>
<path fill="none" stroke="black" d="M549.5,-365C549.5,-371 543.5,-377 537.5,-377"/>
<polyline fill="none" stroke="black" points="537.5,-377 396.5,-377 "/>
<path fill="none" stroke="black" d="M396.5,-377C390.5,-377 384.5,-371 384.5,-365"/>
<polyline fill="none" stroke="black" points="384.5,-365 384.5,-319 "/>
<path fill="none" stroke="black" d="M384.5,-319C384.5,-313 390.5,-307 396.5,-307"/>
<text text-anchor="middle" x="467" y="-360.4" font-family="Times Roman,serif" font-size="14.00">CurrentIssue</text>
<polyline fill="none" stroke="black" points="384.5,-351 549.5,-351 "/>
<text text-anchor="start" x="392.5" y="-334.4" font-family="Times Roman,serif" font-size="14.00">created_at :datetime</text>
<text text-anchor="start" x="392.5" y="-316.4" font-family="Times Roman,serif" font-size="14.00">updated_at :datetime</text>
</g>
<!-- User -->
<g id="node3" class="node"><title>User</title>
<polyline fill="none" stroke="black" points="937,-514 1167,-514 "/>
<path fill="none" stroke="black" d="M1167,-514C1173,-514 1179,-520 1179,-526"/>
<polyline fill="none" stroke="black" points="1179,-526 1179,-752 "/>
<path fill="none" stroke="black" d="M1179,-752C1179,-758 1173,-764 1167,-764"/>
<polyline fill="none" stroke="black" points="1167,-764 937,-764 "/>
<path fill="none" stroke="black" d="M937,-764C931,-764 925,-758 925,-752"/>
<polyline fill="none" stroke="black" points="925,-752 925,-526 "/>
<path fill="none" stroke="black" d="M925,-526C925,-520 931,-514 937,-514"/>
<text text-anchor="middle" x="1052" y="-747.4" font-family="Times Roman,serif" font-size="14.00">User</text>
<polyline fill="none" stroke="black" points="925,-738 1179,-738 "/>
<text text-anchor="start" x="933" y="-721.4" font-family="Times Roman,serif" font-size="14.00">email :string</text>
<text text-anchor="start" x="933" y="-703.4" font-family="Times Roman,serif" font-size="14.00">encrypted_password :string</text>
<text text-anchor="start" x="933" y="-685.4" font-family="Times Roman,serif" font-size="14.00">reset_password_token :string</text>
<text text-anchor="start" x="933" y="-667.4" font-family="Times Roman,serif" font-size="14.00">reset_password_sent_at :datetime</text>
<text text-anchor="start" x="933" y="-649.4" font-family="Times Roman,serif" font-size="14.00">remember_created_at :datetime</text>
<text text-anchor="start" x="933" y="-631.4" font-family="Times Roman,serif" font-size="14.00">current_sign_in_at :datetime</text>
<text text-anchor="start" x="933" y="-613.4" font-family="Times Roman,serif" font-size="14.00">last_sign_in_at :datetime</text>
<text text-anchor="start" x="933" y="-595.4" font-family="Times Roman,serif" font-size="14.00">current_sign_in_ip :string</text>
<text text-anchor="start" x="933" y="-577.4" font-family="Times Roman,serif" font-size="14.00">last_sign_in_ip :string</text>
<text text-anchor="start" x="933" y="-559.4" font-family="Times Roman,serif" font-size="14.00">created_at :datetime</text>
<text text-anchor="start" x="933" y="-541.4" font-family="Times Roman,serif" font-size="14.00">updated_at :datetime</text>
<text text-anchor="start" x="933" y="-523.4" font-family="Times Roman,serif" font-size="14.00">roles_mask :integer</text>
</g>
<!-- Tag -->
<g id="node4" class="node"><title>Tag</title>
<polyline fill="none" stroke="black" points="754.5,-595 895.5,-595 "/>
<path fill="none" stroke="black" d="M895.5,-595C901.5,-595 907.5,-601 907.5,-607"/>
<polyline fill="none" stroke="black" points="907.5,-607 907.5,-671 "/>
<path fill="none" stroke="black" d="M907.5,-671C907.5,-677 901.5,-683 895.5,-683"/>
<polyline fill="none" stroke="black" points="895.5,-683 754.5,-683 "/>
<path fill="none" stroke="black" d="M754.5,-683C748.5,-683 742.5,-677 742.5,-671"/>
<polyline fill="none" stroke="black" points="742.5,-671 742.5,-607 "/>
<path fill="none" stroke="black" d="M742.5,-607C742.5,-601 748.5,-595 754.5,-595"/>
<text text-anchor="middle" x="825" y="-666.4" font-family="Times Roman,serif" font-size="14.00">Tag</text>
<polyline fill="none" stroke="black" points="742.5,-657 907.5,-657 "/>
<text text-anchor="start" x="750.5" y="-640.4" font-family="Times Roman,serif" font-size="14.00">name :string</text>
<text text-anchor="start" x="750.5" y="-622.4" font-family="Times Roman,serif" font-size="14.00">created_at :datetime</text>
<text text-anchor="start" x="750.5" y="-604.4" font-family="Times Roman,serif" font-size="14.00">updated_at :datetime</text>
</g>
<!-- Tagging -->
<g id="node5" class="node"><title>Tagging</title>
<polyline fill="none" stroke="black" points="819.5,-55 960.5,-55 "/>
<path fill="none" stroke="black" d="M960.5,-55C966.5,-55 972.5,-61 972.5,-67"/>
<polyline fill="none" stroke="black" points="972.5,-67 972.5,-113 "/>
<path fill="none" stroke="black" d="M972.5,-113C972.5,-119 966.5,-125 960.5,-125"/>
<polyline fill="none" stroke="black" points="960.5,-125 819.5,-125 "/>
<path fill="none" stroke="black" d="M819.5,-125C813.5,-125 807.5,-119 807.5,-113"/>
<polyline fill="none" stroke="black" points="807.5,-113 807.5,-67 "/>
<path fill="none" stroke="black" d="M807.5,-67C807.5,-61 813.5,-55 819.5,-55"/>
<text text-anchor="middle" x="890" y="-108.4" font-family="Times Roman,serif" font-size="14.00">Tagging</text>
<polyline fill="none" stroke="black" points="807.5,-99 972.5,-99 "/>
<text text-anchor="start" x="815.5" y="-82.4" font-family="Times Roman,serif" font-size="14.00">created_at :datetime</text>
<text text-anchor="start" x="815.5" y="-64.4" font-family="Times Roman,serif" font-size="14.00">updated_at :datetime</text>
</g>
<!-- Tag&#45;&gt;Tagging -->
<g id="edge2" class="edge"><title>Tag&#45;&gt;Tagging</title>
<path fill="none" stroke="black" d="M831.22,-586.468C843.935,-479.073 872.711,-236.029 884.651,-135.176"/>
<ellipse fill="none" stroke="black" cx="830.735" cy="-590.566" rx="4.00001" ry="4.00001"/>
<polygon fill="black" stroke="black" points="884.678,-134.946 890.323,-125.544 885.266,-129.98 885.854,-125.015 885.854,-125.015 885.854,-125.015 885.266,-129.98 881.386,-124.486 884.678,-134.946 884.678,-134.946"/>
</g>
<!-- Article -->
<g id="node17" class="node"><title>Article</title>
<polyline fill="none" stroke="black" points="617,-217 805,-217 "/>
<path fill="none" stroke="black" d="M805,-217C811,-217 817,-223 817,-229"/>
<polyline fill="none" stroke="black" points="817,-229 817,-455 "/>
<path fill="none" stroke="black" d="M817,-455C817,-461 811,-467 805,-467"/>
<polyline fill="none" stroke="black" points="805,-467 617,-467 "/>
<path fill="none" stroke="black" d="M617,-467C611,-467 605,-461 605,-455"/>
<polyline fill="none" stroke="black" points="605,-455 605,-229 "/>
<path fill="none" stroke="black" d="M605,-229C605,-223 611,-217 617,-217"/>
<text text-anchor="middle" x="711" y="-450.4" font-family="Times Roman,serif" font-size="14.00">Article</text>
<polyline fill="none" stroke="black" points="605,-441 817,-441 "/>
<text text-anchor="start" x="613" y="-424.4" font-family="Times Roman,serif" font-size="14.00">title :string</text>
<text text-anchor="start" x="613" y="-406.4" font-family="Times Roman,serif" font-size="14.00">hypertitle :string</text>
<text text-anchor="start" x="613" y="-388.4" font-family="Times Roman,serif" font-size="14.00">html :text</text>
<text text-anchor="start" x="613" y="-370.4" font-family="Times Roman,serif" font-size="14.00">author :string</text>
<text text-anchor="start" x="613" y="-352.4" font-family="Times Roman,serif" font-size="14.00">published :boolean</text>
<text text-anchor="start" x="613" y="-334.4" font-family="Times Roman,serif" font-size="14.00">date :date</text>
<text text-anchor="start" x="613" y="-316.4" font-family="Times Roman,serif" font-size="14.00">created_at :datetime</text>
<text text-anchor="start" x="613" y="-298.4" font-family="Times Roman,serif" font-size="14.00">updated_at :datetime</text>
<text text-anchor="start" x="613" y="-280.4" font-family="Times Roman,serif" font-size="14.00">photo_file_name :string</text>
<text text-anchor="start" x="613" y="-262.4" font-family="Times Roman,serif" font-size="14.00">photo_content_type :string</text>
<text text-anchor="start" x="613" y="-244.4" font-family="Times Roman,serif" font-size="14.00">photo_file_size :integer</text>
<text text-anchor="start" x="613" y="-226.4" font-family="Times Roman,serif" font-size="14.00">photo_updated_at :datetime</text>
</g>
<!-- Tag&#45;&gt;Article -->
<g id="edge4" class="edge"><title>Tag&#45;&gt;Article</title>
<path fill="none" stroke="black" d="M804.423,-585.391C792.719,-554.9 777.49,-515.224 762.735,-476.785"/>
<polygon fill="black" stroke="black" points="804.473,-585.521 803.855,-596.469 806.264,-590.189 808.056,-594.857 808.056,-594.857 808.056,-594.857 806.264,-590.189 812.257,-593.244 804.473,-585.521 804.473,-585.521"/>
<polygon fill="black" stroke="black" points="762.581,-476.381 763.198,-465.432 760.789,-471.713 758.997,-467.045 758.997,-467.045 758.997,-467.045 760.789,-471.713 754.796,-468.657 762.581,-476.381 762.581,-476.381"/>
</g>
<!-- Navigator -->
<g id="node6" class="node"><title>Navigator</title>
<polyline fill="none" stroke="black" points="242,-28 402,-28 "/>
<path fill="none" stroke="black" d="M402,-28C408,-28 414,-34 414,-40"/>
<polyline fill="none" stroke="black" points="414,-40 414,-140 "/>
<path fill="none" stroke="black" d="M414,-140C414,-146 408,-152 402,-152"/>
<polyline fill="none" stroke="black" points="402,-152 242,-152 "/>
<path fill="none" stroke="black" d="M242,-152C236,-152 230,-146 230,-140"/>
<polyline fill="none" stroke="black" points="230,-140 230,-40 "/>
<path fill="none" stroke="black" d="M230,-40C230,-34 236,-28 242,-28"/>
<text text-anchor="middle" x="322" y="-135.4" font-family="Times Roman,serif" font-size="14.00">Navigator</text>
<polyline fill="none" stroke="black" points="230,-126 414,-126 "/>
<text text-anchor="start" x="238" y="-109.4" font-family="Times Roman,serif" font-size="14.00">name :string</text>
<text text-anchor="start" x="238" y="-91.4" font-family="Times Roman,serif" font-size="14.00">position :integer</text>
<text text-anchor="start" x="238" y="-73.4" font-family="Times Roman,serif" font-size="14.00">navigatable_type :string</text>
<text text-anchor="start" x="238" y="-55.4" font-family="Times Roman,serif" font-size="14.00">created_at :datetime</text>
<text text-anchor="start" x="238" y="-37.4" font-family="Times Roman,serif" font-size="14.00">updated_at :datetime</text>
</g>
<!-- Ordering -->
<g id="node7" class="node"><title>Ordering</title>
<polyline fill="none" stroke="black" points="637.5,-37 778.5,-37 "/>
<path fill="none" stroke="black" d="M778.5,-37C784.5,-37 790.5,-43 790.5,-49"/>
<polyline fill="none" stroke="black" points="790.5,-49 790.5,-131 "/>
<path fill="none" stroke="black" d="M790.5,-131C790.5,-137 784.5,-143 778.5,-143"/>
<polyline fill="none" stroke="black" points="778.5,-143 637.5,-143 "/>
<path fill="none" stroke="black" d="M637.5,-143C631.5,-143 625.5,-137 625.5,-131"/>
<polyline fill="none" stroke="black" points="625.5,-131 625.5,-49 "/>
<path fill="none" stroke="black" d="M625.5,-49C625.5,-43 631.5,-37 637.5,-37"/>
<text text-anchor="middle" x="708" y="-126.4" font-family="Times Roman,serif" font-size="14.00">Ordering</text>
<polyline fill="none" stroke="black" points="625.5,-117 790.5,-117 "/>
<text text-anchor="start" x="633.5" y="-100.4" font-family="Times Roman,serif" font-size="14.00">issue_pos :integer</text>
<text text-anchor="start" x="633.5" y="-82.4" font-family="Times Roman,serif" font-size="14.00">cat_pos :integer</text>
<text text-anchor="start" x="633.5" y="-64.4" font-family="Times Roman,serif" font-size="14.00">created_at :datetime</text>
<text text-anchor="start" x="633.5" y="-46.4" font-family="Times Roman,serif" font-size="14.00">updated_at :datetime</text>
</g>
<!-- Ckeditor::Picture -->
<g id="node8" class="node"><title>Ckeditor::Picture</title>
<polyline fill="none" stroke="black" points="1102.5,-271 1273.5,-271 "/>
<path fill="none" stroke="black" d="M1273.5,-271C1279.5,-271 1285.5,-277 1285.5,-283"/>
<polyline fill="none" stroke="black" points="1285.5,-283 1285.5,-401 "/>
<path fill="none" stroke="black" d="M1285.5,-401C1285.5,-407 1279.5,-413 1273.5,-413"/>
<polyline fill="none" stroke="black" points="1273.5,-413 1102.5,-413 "/>
<path fill="none" stroke="black" d="M1102.5,-413C1096.5,-413 1090.5,-407 1090.5,-401"/>
<polyline fill="none" stroke="black" points="1090.5,-401 1090.5,-283 "/>
<path fill="none" stroke="black" d="M1090.5,-283C1090.5,-277 1096.5,-271 1102.5,-271"/>
<text text-anchor="middle" x="1188" y="-396.4" font-family="Times Roman,serif" font-size="14.00">Ckeditor::Picture</text>
<polyline fill="none" stroke="black" points="1090.5,-387 1285.5,-387 "/>
<text text-anchor="start" x="1098.5" y="-370.4" font-family="Times Roman,serif" font-size="14.00">data_file_name :string</text>
<text text-anchor="start" x="1098.5" y="-352.4" font-family="Times Roman,serif" font-size="14.00">data_content_type :string</text>
<text text-anchor="start" x="1098.5" y="-334.4" font-family="Times Roman,serif" font-size="14.00">data_file_size :integer</text>
<text text-anchor="start" x="1098.5" y="-316.4" font-family="Times Roman,serif" font-size="14.00">assetable_type :string</text>
<text text-anchor="start" x="1098.5" y="-298.4" font-family="Times Roman,serif" font-size="14.00">created_at :datetime</text>
<text text-anchor="start" x="1098.5" y="-280.4" font-family="Times Roman,serif" font-size="14.00">updated_at :datetime</text>
</g>
<!-- Ckeditor::AttachmentFile -->
<g id="node9" class="node"><title>Ckeditor::AttachmentFile</title>
<polyline fill="none" stroke="black" points="1314.5,-271 1485.5,-271 "/>
<path fill="none" stroke="black" d="M1485.5,-271C1491.5,-271 1497.5,-277 1497.5,-283"/>
<polyline fill="none" stroke="black" points="1497.5,-283 1497.5,-401 "/>
<path fill="none" stroke="black" d="M1497.5,-401C1497.5,-407 1491.5,-413 1485.5,-413"/>
<polyline fill="none" stroke="black" points="1485.5,-413 1314.5,-413 "/>
<path fill="none" stroke="black" d="M1314.5,-413C1308.5,-413 1302.5,-407 1302.5,-401"/>
<polyline fill="none" stroke="black" points="1302.5,-401 1302.5,-283 "/>
<path fill="none" stroke="black" d="M1302.5,-283C1302.5,-277 1308.5,-271 1314.5,-271"/>
<text text-anchor="middle" x="1400" y="-396.4" font-family="Times Roman,serif" font-size="14.00">Ckeditor::AttachmentFile</text>
<polyline fill="none" stroke="black" points="1302.5,-387 1497.5,-387 "/>
<text text-anchor="start" x="1310.5" y="-370.4" font-family="Times Roman,serif" font-size="14.00">data_file_name :string</text>
<text text-anchor="start" x="1310.5" y="-352.4" font-family="Times Roman,serif" font-size="14.00">data_content_type :string</text>
<text text-anchor="start" x="1310.5" y="-334.4" font-family="Times Roman,serif" font-size="14.00">data_file_size :integer</text>
<text text-anchor="start" x="1310.5" y="-316.4" font-family="Times Roman,serif" font-size="14.00">assetable_type :string</text>
<text text-anchor="start" x="1310.5" y="-298.4" font-family="Times Roman,serif" font-size="14.00">created_at :datetime</text>
<text text-anchor="start" x="1310.5" y="-280.4" font-family="Times Roman,serif" font-size="14.00">updated_at :datetime</text>
</g>
<!-- Ckeditor::Asset -->
<g id="node10" class="node"><title>Ckeditor::Asset</title>
<polyline fill="none" stroke="black" points="1208.5,-568 1379.5,-568 "/>
<path fill="none" stroke="black" d="M1379.5,-568C1385.5,-568 1391.5,-574 1391.5,-580"/>
<polyline fill="none" stroke="black" points="1391.5,-580 1391.5,-698 "/>
<path fill="none" stroke="black" d="M1391.5,-698C1391.5,-704 1385.5,-710 1379.5,-710"/>
<polyline fill="none" stroke="black" points="1379.5,-710 1208.5,-710 "/>
<path fill="none" stroke="black" d="M1208.5,-710C1202.5,-710 1196.5,-704 1196.5,-698"/>
<polyline fill="none" stroke="black" points="1196.5,-698 1196.5,-580 "/>
<path fill="none" stroke="black" d="M1196.5,-580C1196.5,-574 1202.5,-568 1208.5,-568"/>
<text text-anchor="middle" x="1294" y="-693.4" font-family="Times Roman,serif" font-size="14.00">Ckeditor::Asset</text>
<polyline fill="none" stroke="black" points="1196.5,-684 1391.5,-684 "/>
<text text-anchor="start" x="1204.5" y="-667.4" font-family="Times Roman,serif" font-size="14.00">data_file_name :string</text>
<text text-anchor="start" x="1204.5" y="-649.4" font-family="Times Roman,serif" font-size="14.00">data_content_type :string</text>
<text text-anchor="start" x="1204.5" y="-631.4" font-family="Times Roman,serif" font-size="14.00">data_file_size :integer</text>
<text text-anchor="start" x="1204.5" y="-613.4" font-family="Times Roman,serif" font-size="14.00">assetable_type :string</text>
<text text-anchor="start" x="1204.5" y="-595.4" font-family="Times Roman,serif" font-size="14.00">created_at :datetime</text>
<text text-anchor="start" x="1204.5" y="-577.4" font-family="Times Roman,serif" font-size="14.00">updated_at :datetime</text>
</g>
<!-- Ckeditor::Asset&#45;&gt;Ckeditor::Picture -->
<g id="edge6" class="edge"><title>Ckeditor::Asset&#45;&gt;Ckeditor::Picture</title>
<path fill="none" stroke="black" d="M1268.61,-567.861C1251.89,-521.011 1230.08,-459.909 1213.37,-413.073"/>
</g>
<!-- Ckeditor::Asset&#45;&gt;Ckeditor::AttachmentFile -->
<g id="edge8" class="edge"><title>Ckeditor::Asset&#45;&gt;Ckeditor::AttachmentFile</title>
<path fill="none" stroke="black" d="M1319.39,-567.861C1336.11,-521.011 1357.92,-459.909 1374.63,-413.073"/>
</g>
<!-- Block -->
<g id="node11" class="node"><title>Block</title>
<polyline fill="none" stroke="black" points="82.5,-271 223.5,-271 "/>
<path fill="none" stroke="black" d="M223.5,-271C229.5,-271 235.5,-277 235.5,-283"/>
<polyline fill="none" stroke="black" points="235.5,-283 235.5,-401 "/>
<path fill="none" stroke="black" d="M235.5,-401C235.5,-407 229.5,-413 223.5,-413"/>
<polyline fill="none" stroke="black" points="223.5,-413 82.5,-413 "/>
<path fill="none" stroke="black" d="M82.5,-413C76.5,-413 70.5,-407 70.5,-401"/>
<polyline fill="none" stroke="black" points="70.5,-401 70.5,-283 "/>
<path fill="none" stroke="black" d="M70.5,-283C70.5,-277 76.5,-271 82.5,-271"/>
<text text-anchor="middle" x="153" y="-396.4" font-family="Times Roman,serif" font-size="14.00">Block</text>
<polyline fill="none" stroke="black" points="70.5,-387 235.5,-387 "/>
<text text-anchor="start" x="78.5" y="-370.4" font-family="Times Roman,serif" font-size="14.00">position :integer</text>
<text text-anchor="start" x="78.5" y="-352.4" font-family="Times Roman,serif" font-size="14.00">name :string</text>
<text text-anchor="start" x="78.5" y="-334.4" font-family="Times Roman,serif" font-size="14.00">mode :string</text>
<text text-anchor="start" x="78.5" y="-316.4" font-family="Times Roman,serif" font-size="14.00">placement :string</text>
<text text-anchor="start" x="78.5" y="-298.4" font-family="Times Roman,serif" font-size="14.00">created_at :datetime</text>
<text text-anchor="start" x="78.5" y="-280.4" font-family="Times Roman,serif" font-size="14.00">updated_at :datetime</text>
</g>
<!-- Block&#45;&gt;Navigator -->
<g id="edge10" class="edge"><title>Block&#45;&gt;Navigator</title>
<path fill="none" stroke="black" d="M205.213,-264.143C227.4,-231.06 253.083,-192.765 274.704,-160.524"/>
<ellipse fill="none" stroke="black" cx="202.979" cy="-267.475" rx="4.00002" ry="4.00002"/>
<polygon fill="black" stroke="black" points="274.828,-160.339 284.135,-154.54 277.613,-156.187 280.398,-152.034 280.398,-152.034 280.398,-152.034 277.613,-156.187 276.661,-149.527 274.828,-160.339 274.828,-160.339"/>
</g>
<!-- Banner -->
<g id="node18" class="node"><title>Banner</title>
<polyline fill="none" stroke="black" points="12,-1 200,-1 "/>
<path fill="none" stroke="black" d="M200,-1C206,-1 212,-7 212,-13"/>
<polyline fill="none" stroke="black" points="212,-13 212,-167 "/>
<path fill="none" stroke="black" d="M212,-167C212,-173 206,-179 200,-179"/>
<polyline fill="none" stroke="black" points="200,-179 12,-179 "/>
<path fill="none" stroke="black" d="M12,-179C6,-179 0,-173 0,-167"/>
<polyline fill="none" stroke="black" points="0,-167 0,-13 "/>
<path fill="none" stroke="black" d="M0,-13C0,-7 6,-1 12,-1"/>
<text text-anchor="middle" x="106" y="-162.4" font-family="Times Roman,serif" font-size="14.00">Banner</text>
<polyline fill="none" stroke="black" points="0,-153 212,-153 "/>
<text text-anchor="start" x="8" y="-136.4" font-family="Times Roman,serif" font-size="14.00">describe :string</text>
<text text-anchor="start" x="8" y="-118.4" font-family="Times Roman,serif" font-size="14.00">photo_file_name :string</text>
<text text-anchor="start" x="8" y="-100.4" font-family="Times Roman,serif" font-size="14.00">photo_content_type :string</text>
<text text-anchor="start" x="8" y="-82.4" font-family="Times Roman,serif" font-size="14.00">photo_file_size :integer</text>
<text text-anchor="start" x="8" y="-64.4" font-family="Times Roman,serif" font-size="14.00">photo_updated_at :datetime</text>
<text text-anchor="start" x="8" y="-46.4" font-family="Times Roman,serif" font-size="14.00">created_at :datetime</text>
<text text-anchor="start" x="8" y="-28.4" font-family="Times Roman,serif" font-size="14.00">updated_at :datetime</text>
<text text-anchor="start" x="8" y="-10.4" font-family="Times Roman,serif" font-size="14.00">url :string</text>
</g>
<!-- Block&#45;&gt;Banner -->
<g id="edge12" class="edge"><title>Block&#45;&gt;Banner</title>
<path fill="none" stroke="black" d="M138.21,-262.7C133.875,-239.459 129.08,-213.75 124.543,-189.424"/>
<ellipse fill="none" stroke="black" cx="138.987" cy="-266.865" rx="4.00001" ry="4.00001"/>
<polygon fill="black" stroke="black" points="124.518,-189.289 127.109,-178.634 123.602,-184.374 122.685,-179.459 122.685,-179.459 122.685,-179.459 123.602,-184.374 118.261,-180.284 124.518,-189.289 124.518,-189.289"/>
</g>
<!-- Ability -->
<g id="node12" class="node"><title>Ability</title>
<polygon fill="none" stroke="black" points="1409,-613 1409,-665 1469,-665 1469,-613 1409,-613"/>
<text text-anchor="middle" x="1439" y="-648.4" font-family="Times Roman,serif" font-size="14.00">Ability</text>
<polyline fill="none" stroke="black" points="1409,-639 1469,-639 "/>
<text text-anchor="middle" x="1439" y="-622.4" font-family="Times Roman,serif" font-size="14.00"> </text>
</g>
<!-- Admin -->
<g id="node13" class="node"><title>Admin</title>
<polygon fill="none" stroke="black" stroke-dasharray="1,5" points="1547,-657 1487,-657 1487,-621 1547,-621 1547,-657"/>
<text text-anchor="middle" x="1517" y="-635.4" font-family="Times Roman,serif" font-size="14.00">Admin</text>
</g>
<!-- Linker -->
<g id="node14" class="node"><title>Linker</title>
<polyline fill="none" stroke="black" points="450,-37 596,-37 "/>
<path fill="none" stroke="black" d="M596,-37C602,-37 608,-43 608,-49"/>
<polyline fill="none" stroke="black" points="608,-49 608,-131 "/>
<path fill="none" stroke="black" d="M608,-131C608,-137 602,-143 596,-143"/>
<polyline fill="none" stroke="black" points="596,-143 450,-143 "/>
<path fill="none" stroke="black" d="M450,-143C444,-143 438,-137 438,-131"/>
<polyline fill="none" stroke="black" points="438,-131 438,-49 "/>
<path fill="none" stroke="black" d="M438,-49C438,-43 444,-37 450,-37"/>
<text text-anchor="middle" x="523" y="-126.4" font-family="Times Roman,serif" font-size="14.00">Linker</text>
<polyline fill="none" stroke="black" points="438,-117 608,-117 "/>
<text text-anchor="start" x="446" y="-100.4" font-family="Times Roman,serif" font-size="14.00">linkerable_type :string</text>
<text text-anchor="start" x="446" y="-82.4" font-family="Times Roman,serif" font-size="14.00">permalink :string</text>
<text text-anchor="start" x="446" y="-64.4" font-family="Times Roman,serif" font-size="14.00">created_at :datetime</text>
<text text-anchor="start" x="446" y="-46.4" font-family="Times Roman,serif" font-size="14.00">updated_at :datetime</text>
</g>
<!-- Issue -->
<g id="node15" class="node"><title>Issue</title>
<polyline fill="none" stroke="black" points="484,-505 670,-505 "/>
<path fill="none" stroke="black" d="M670,-505C676,-505 682,-511 682,-517"/>
<polyline fill="none" stroke="black" points="682,-517 682,-761 "/>
<path fill="none" stroke="black" d="M682,-761C682,-767 676,-773 670,-773"/>
<polyline fill="none" stroke="black" points="670,-773 484,-773 "/>
<path fill="none" stroke="black" d="M484,-773C478,-773 472,-767 472,-761"/>
<polyline fill="none" stroke="black" points="472,-761 472,-517 "/>
<path fill="none" stroke="black" d="M472,-517C472,-511 478,-505 484,-505"/>
<text text-anchor="middle" x="577" y="-756.4" font-family="Times Roman,serif" font-size="14.00">Issue</text>
<polyline fill="none" stroke="black" points="472,-747 682,-747 "/>
<text text-anchor="start" x="480" y="-730.4" font-family="Times Roman,serif" font-size="14.00">number :integer</text>
<text text-anchor="start" x="480" y="-712.4" font-family="Times Roman,serif" font-size="14.00">date :date</text>
<text text-anchor="start" x="480" y="-694.4" font-family="Times Roman,serif" font-size="14.00">published :boolean</text>
<text text-anchor="start" x="480" y="-676.4" font-family="Times Roman,serif" font-size="14.00">created_at :datetime</text>
<text text-anchor="start" x="480" y="-658.4" font-family="Times Roman,serif" font-size="14.00">updated_at :datetime</text>
<text text-anchor="start" x="480" y="-640.4" font-family="Times Roman,serif" font-size="14.00">cover_file_name :string</text>
<text text-anchor="start" x="480" y="-622.4" font-family="Times Roman,serif" font-size="14.00">cover_content_type :string</text>
<text text-anchor="start" x="480" y="-604.4" font-family="Times Roman,serif" font-size="14.00">cover_file_size :integer</text>
<text text-anchor="start" x="480" y="-586.4" font-family="Times Roman,serif" font-size="14.00">cover_updated_at :datetime</text>
<text text-anchor="start" x="480" y="-568.4" font-family="Times Roman,serif" font-size="14.00">pdf_file_name :string</text>
<text text-anchor="start" x="480" y="-550.4" font-family="Times Roman,serif" font-size="14.00">pdf_content_type :string</text>
<text text-anchor="start" x="480" y="-532.4" font-family="Times Roman,serif" font-size="14.00">pdf_file_size :integer</text>
<text text-anchor="start" x="480" y="-514.4" font-family="Times Roman,serif" font-size="14.00">pdf_updated_at :datetime</text>
</g>
<!-- Issue&#45;&gt;CurrentIssue -->
<g id="edge16" class="edge"><title>Issue&#45;&gt;CurrentIssue</title>
<path fill="none" stroke="black" d="M524.446,-497.105C509.278,-456.151 493.862,-414.526 482.823,-384.722"/>
<ellipse fill="none" stroke="black" cx="525.921" cy="-501.086" rx="4.00001" ry="4.00001"/>
<ellipse fill="black" stroke="black" cx="481.361" cy="-380.775" rx="4.00001" ry="4.00001"/>
</g>
<!-- Issue&#45;&gt;Linker -->
<g id="edge18" class="edge"><title>Issue&#45;&gt;Linker</title>
<path fill="none" stroke="black" d="M578.589,-496.452C577.519,-414.042 572.753,-308.646 558,-216 554.565,-194.429 548.769,-171.276 542.871,-150.776"/>
<ellipse fill="none" stroke="black" cx="578.64" cy="-500.86" rx="4" ry="4"/>
<ellipse fill="black" stroke="black" cx="541.734" cy="-146.897" rx="4.00001" ry="4.00001"/>
</g>
<!-- Issue&#45;&gt;Article -->
<g id="edge14" class="edge"><title>Issue&#45;&gt;Article</title>
<path fill="none" stroke="black" d="M640.829,-497.528C643.947,-490.618 647.074,-483.687 650.183,-476.796"/>
<ellipse fill="none" stroke="black" cx="639.176" cy="-501.191" rx="4.00002" ry="4.00002"/>
<polygon fill="black" stroke="black" points="650.296,-476.544 658.511,-469.28 652.353,-471.987 654.409,-467.429 654.409,-467.429 654.409,-467.429 652.353,-471.987 650.307,-465.579 650.296,-476.544 650.296,-476.544"/>
</g>
<!-- Category -->
<g id="node16" class="node"><title>Category</title>
<polyline fill="none" stroke="black" points="286.5,-577 427.5,-577 "/>
<path fill="none" stroke="black" d="M427.5,-577C433.5,-577 439.5,-583 439.5,-589"/>
<polyline fill="none" stroke="black" points="439.5,-589 439.5,-689 "/>
<path fill="none" stroke="black" d="M439.5,-689C439.5,-695 433.5,-701 427.5,-701"/>
<polyline fill="none" stroke="black" points="427.5,-701 286.5,-701 "/>
<path fill="none" stroke="black" d="M286.5,-701C280.5,-701 274.5,-695 274.5,-689"/>
<polyline fill="none" stroke="black" points="274.5,-689 274.5,-589 "/>
<path fill="none" stroke="black" d="M274.5,-589C274.5,-583 280.5,-577 286.5,-577"/>
<text text-anchor="middle" x="357" y="-684.4" font-family="Times Roman,serif" font-size="14.00">Category</text>
<polyline fill="none" stroke="black" points="274.5,-675 439.5,-675 "/>
<text text-anchor="start" x="282.5" y="-658.4" font-family="Times Roman,serif" font-size="14.00">name :string</text>
<text text-anchor="start" x="282.5" y="-640.4" font-family="Times Roman,serif" font-size="14.00">permalink :string</text>
<text text-anchor="start" x="282.5" y="-622.4" font-family="Times Roman,serif" font-size="14.00">created_at :datetime</text>
<text text-anchor="start" x="282.5" y="-604.4" font-family="Times Roman,serif" font-size="14.00">updated_at :datetime</text>
<text text-anchor="start" x="282.5" y="-586.4" font-family="Times Roman,serif" font-size="14.00">issued :boolean</text>
</g>
<!-- Category&#45;&gt;Navigator -->
<g id="edge22" class="edge"><title>Category&#45;&gt;Navigator</title>
<path fill="none" stroke="black" d="M350.832,-568.757C348.227,-537.866 345.277,-501.144 343,-468 335.707,-361.849 329.24,-238.793 325.471,-162.661"/>
<ellipse fill="none" stroke="black" cx="351.184" cy="-572.907" rx="4" ry="4"/>
<polygon fill="black" stroke="black" points="325.449,-162.225 329.452,-152.015 325.203,-157.231 324.957,-152.237 324.957,-152.237 324.957,-152.237 325.203,-157.231 320.463,-152.458 325.449,-162.225 325.449,-162.225"/>
</g>
<!-- Category&#45;&gt;Linker -->
<g id="edge24" class="edge"><title>Category&#45;&gt;Linker</title>
<path fill="none" stroke="black" d="M353.091,-568.385C348.505,-464.227 345.037,-275.327 376,-216 388.174,-192.673 402.761,-196.814 423,-180 434.933,-170.086 447.406,-159.258 459.335,-148.657"/>
<ellipse fill="none" stroke="black" cx="353.285" cy="-572.66" rx="4" ry="4"/>
<ellipse fill="black" stroke="black" cx="462.533" cy="-145.804" rx="4.00002" ry="4.00002"/>
</g>
<!-- Category&#45;&gt;Article -->
<g id="edge20" class="edge"><title>Category&#45;&gt;Article</title>
<path fill="none" stroke="black" d="M399.611,-570.38C416.934,-546.82 438.636,-521.902 463,-504 499.386,-477.264 518.942,-490.653 558,-468 570.941,-460.494 583.9,-451.904 596.497,-442.813"/>
<ellipse fill="none" stroke="black" cx="397.185" cy="-573.739" rx="4.00002" ry="4.00002"/>
<polygon fill="black" stroke="black" points="596.659,-442.694 607.382,-440.401 600.689,-439.734 604.718,-436.774 604.718,-436.774 604.718,-436.774 600.689,-439.734 602.054,-433.147 596.659,-442.694 596.659,-442.694"/>
</g>
<!-- Article&#45;&gt;Tagging -->
<g id="edge32" class="edge"><title>Article&#45;&gt;Tagging</title>
<path fill="none" stroke="black" d="M804.746,-210.022C824.469,-182.256 843.916,-154.877 859.246,-133.297"/>
<ellipse fill="none" stroke="black" cx="802.292" cy="-213.477" rx="4.00002" ry="4.00002"/>
<polygon fill="black" stroke="black" points="859.332,-133.175 868.792,-127.628 862.228,-129.098 865.123,-125.022 865.123,-125.022 865.123,-125.022 862.228,-129.098 861.455,-122.416 859.332,-133.175 859.332,-133.175"/>
</g>
<!-- Article&#45;&gt;Navigator -->
<g id="edge30" class="edge"><title>Article&#45;&gt;Navigator</title>
<path fill="none" stroke="black" d="M597.875,-240.458C584.927,-231.42 571.512,-223.044 558,-216 505.217,-188.485 481.639,-207.789 429,-180 417.454,-173.904 406.035,-166.397 395.201,-158.34"/>
<ellipse fill="none" stroke="black" cx="601.341" cy="-242.923" rx="4.00002" ry="4.00002"/>
<polygon fill="black" stroke="black" points="394.976,-158.168 389.775,-148.514 391.007,-155.127 387.038,-152.086 387.038,-152.086 387.038,-152.086 391.007,-155.127 384.301,-155.659 394.976,-158.168 394.976,-158.168"/>
</g>
<!-- Article&#45;&gt;Ordering -->
<g id="edge26" class="edge"><title>Article&#45;&gt;Ordering</title>
<path fill="none" stroke="black" d="M709.411,-208.534C709.174,-188.624 708.94,-168.963 708.733,-151.549"/>
<ellipse fill="none" stroke="black" cx="709.461" cy="-212.739" rx="4" ry="4"/>
<ellipse fill="black" stroke="black" cx="708.681" cy="-147.19" rx="4" ry="4"/>
</g>
<!-- Article&#45;&gt;Linker -->
<g id="edge28" class="edge"><title>Article&#45;&gt;Linker</title>
<path fill="none" stroke="black" d="M612.563,-210.052C596.824,-188.955 581.251,-168.081 567.615,-149.802"/>
<ellipse fill="none" stroke="black" cx="615.159" cy="-213.532" rx="4.00002" ry="4.00002"/>
<ellipse fill="black" stroke="black" cx="565.073" cy="-146.396" rx="4.00002" ry="4.00002"/>
</g>
</g>
</svg>
