<?xml version="1.0" encoding="UTF-8" standalone="no"?>
<!DOCTYPE svg PUBLIC "-//W3C//DTD SVG 1.1//EN"
 "http://www.w3.org/Graphics/SVG/1.1/DTD/svg11.dtd">
<!-- Generated by graphviz version 2.26.3 (20100126.1600)
 -->
<!-- Title: models_diagram Pages: 1 -->
<svg width="1293pt" height="250pt"
 viewBox="0.00 0.00 1293.00 250.00" xmlns="http://www.w3.org/2000/svg" xmlns:xlink="http://www.w3.org/1999/xlink">
<g id="graph1" class="graph" transform="scale(1 1) rotate(0) translate(4 246)">
<title>models_diagram</title>
<polygon fill="white" stroke="white" points="-4,5 -4,-246 1290,-246 1290,5 -4,5"/>
<!-- _diagram_info -->
<g id="node1" class="node"><title>_diagram_info</title>
<text text-anchor="start" x="8" y="-225.8" font-family="Times Roman,serif" font-size="13.00">Models diagram</text>
<text text-anchor="start" x="8" y="-208.8" font-family="Times Roman,serif" font-size="13.00">Date: Jan 18 2012 &#45; 20:19</text>
<text text-anchor="start" x="8" y="-191.8" font-family="Times Roman,serif" font-size="13.00">Migration version: 20111026121940</text>
<text text-anchor="start" x="8" y="-174.8" font-family="Times Roman,serif" font-size="13.00">Generated by RailRoady 1.0.4</text>
<text text-anchor="start" x="8" y="-157.8" font-family="Times Roman,serif" font-size="13.00">http://railroady.prestonlee.com</text>
</g>
<!-- CurrentIssue -->
<g id="node2" class="node"><title>CurrentIssue</title>
<ellipse fill="none" stroke="black" cx="427" cy="-93" rx="74.9533" ry="18.3848"/>
<text text-anchor="middle" x="427" y="-89.4" font-family="Times Roman,serif" font-size="14.00">CurrentIssue</text>
</g>
<!-- User -->
<g id="node3" class="node"><title>User</title>
<ellipse fill="none" stroke="black" cx="771" cy="-195" rx="33.9411" ry="18.3848"/>
<text text-anchor="middle" x="771" y="-191.4" font-family="Times Roman,serif" font-size="14.00">User</text>
</g>
<!-- Tag -->
<g id="node4" class="node"><title>Tag</title>
<ellipse fill="none" stroke="black" cx="639" cy="-195" rx="27.7881" ry="18.3848"/>
<text text-anchor="middle" x="639" y="-191.4" font-family="Times Roman,serif" font-size="14.00">Tag</text>
</g>
<!-- Tagging -->
<g id="node5" class="node"><title>Tagging</title>
<ellipse fill="none" stroke="black" cx="705" cy="-19" rx="48.7904" ry="18.3848"/>
<text text-anchor="middle" x="705" y="-15.4" font-family="Times Roman,serif" font-size="14.00">Tagging</text>
</g>
<!-- Tag&#45;&gt;Tagging -->
<g id="edge2" class="edge"><title>Tag&#45;&gt;Tagging</title>
<path fill="none" stroke="black" d="M648.685,-169.174C660.918,-136.552 681.89,-80.6268 694.498,-47.0049"/>
<ellipse fill="none" stroke="black" cx="647.219" cy="-173.082" rx="4.00001" ry="4.00001"/>
<polygon fill="black" stroke="black" points="694.612,-46.7003 702.337,-38.9171 696.368,-42.0187 698.124,-37.337 698.124,-37.337 698.124,-37.337 696.368,-42.0187 693.91,-35.7569 694.612,-46.7003 694.612,-46.7003"/>
</g>
<!-- Article -->
<g id="node17" class="node"><title>Article</title>
<ellipse fill="none" stroke="black" cx="601" cy="-93" rx="43.1335" ry="18.3848"/>
<text text-anchor="middle" x="601" y="-89.4" font-family="Times Roman,serif" font-size="14.00">Article</text>
</g>
<!-- Tag&#45;&gt;Article -->
<g id="edge4" class="edge"><title>Tag&#45;&gt;Article</title>
<path fill="none" stroke="black" d="M628.557,-166.969C623.251,-152.725 616.819,-135.46 611.504,-121.194"/>
<polygon fill="black" stroke="black" points="628.715,-167.394 627.989,-178.335 630.461,-172.079 632.206,-176.764 632.206,-176.764 632.206,-176.764 630.461,-172.079 636.423,-175.193 628.715,-167.394 628.715,-167.394"/>
<polygon fill="black" stroke="black" points="611.354,-120.792 612.08,-109.851 609.609,-116.107 607.863,-111.422 607.863,-111.422 607.863,-111.422 609.609,-116.107 603.646,-112.993 611.354,-120.792 611.354,-120.792"/>
</g>
<!-- Navigator -->
<g id="node6" class="node"><title>Navigator</title>
<ellipse fill="none" stroke="black" cx="336" cy="-19" rx="58.8978" ry="18.3848"/>
<text text-anchor="middle" x="336" y="-15.4" font-family="Times Roman,serif" font-size="14.00">Navigator</text>
</g>
<!-- Ordering -->
<g id="node7" class="node"><title>Ordering</title>
<ellipse fill="none" stroke="black" cx="584" cy="-19" rx="53.9477" ry="18.3848"/>
<text text-anchor="middle" x="584" y="-15.4" font-family="Times Roman,serif" font-size="14.00">Ordering</text>
</g>
<!-- Ckeditor::Picture -->
<g id="node8" class="node"><title>Ckeditor::Picture</title>
<ellipse fill="none" stroke="black" cx="908" cy="-93" rx="92.839" ry="18.3848"/>
<text text-anchor="middle" x="908" y="-89.4" font-family="Times Roman,serif" font-size="14.00">Ckeditor::Picture</text>
</g>
<!-- Ckeditor::AttachmentFile -->
<g id="node9" class="node"><title>Ckeditor::AttachmentFile</title>
<ellipse fill="none" stroke="black" cx="1152" cy="-93" rx="132.936" ry="18.3848"/>
<text text-anchor="middle" x="1152" y="-89.4" font-family="Times Roman,serif" font-size="14.00">Ckeditor::AttachmentFile</text>
</g>
<!-- Ckeditor::Asset -->
<g id="node10" class="node"><title>Ckeditor::Asset</title>
<ellipse fill="none" stroke="black" cx="1011" cy="-195" rx="85.0596" ry="18.3848"/>
<text text-anchor="middle" x="1011" y="-191.4" font-family="Times Roman,serif" font-size="14.00">Ckeditor::Asset</text>
</g>
<!-- Ckeditor::Asset&#45;&gt;Ckeditor::Picture -->
<g id="edge6" class="edge"><title>Ckeditor::Asset&#45;&gt;Ckeditor::Picture</title>
<path fill="none" stroke="black" d="M992.586,-176.764C973.953,-158.313 945.301,-129.939 926.602,-111.422"/>
</g>
<!-- Ckeditor::Asset&#45;&gt;Ckeditor::AttachmentFile -->
<g id="edge8" class="edge"><title>Ckeditor::Asset&#45;&gt;Ckeditor::AttachmentFile</title>
<path fill="none" stroke="black" d="M1035.56,-177.233C1061.12,-158.74 1100.96,-129.921 1126.77,-111.25"/>
</g>
<!-- Block -->
<g id="node11" class="node"><title>Block</title>
<ellipse fill="none" stroke="black" cx="215" cy="-93" rx="36.977" ry="18.3848"/>
<text text-anchor="middle" x="215" y="-89.4" font-family="Times Roman,serif" font-size="14.00">Block</text>
</g>
<!-- Block&#45;&gt;Navigator -->
<g id="edge10" class="edge"><title>Block&#45;&gt;Navigator</title>
<path fill="none" stroke="black" d="M245.549,-74.3172C262.206,-64.1304 282.914,-51.4661 300.311,-40.8265"/>
<ellipse fill="none" stroke="black" cx="242.03" cy="-76.4694" rx="4.00002" ry="4.00002"/>
<polygon fill="black" stroke="black" points="300.536,-40.6885 311.415,-39.3101 304.802,-38.0798 309.068,-35.4711 309.068,-35.4711 309.068,-35.4711 304.802,-38.0798 306.72,-31.6321 300.536,-40.6885 300.536,-40.6885"/>
</g>
<!-- Banner -->
<g id="node18" class="node"><title>Banner</title>
<ellipse fill="none" stroke="black" cx="212" cy="-19" rx="46.8775" ry="18.3848"/>
<text text-anchor="middle" x="212" y="-15.4" font-family="Times Roman,serif" font-size="14.00">Banner</text>
</g>
<!-- Block&#45;&gt;Banner -->
<g id="edge12" class="edge"><title>Block&#45;&gt;Banner</title>
<path fill="none" stroke="black" d="M213.918,-66.309C213.677,-60.3769 213.421,-54.0606 213.177,-48.0396"/>
<ellipse fill="none" stroke="black" cx="214.081" cy="-70.33" rx="4" ry="4"/>
<polygon fill="black" stroke="black" points="213.162,-47.6591 217.253,-37.485 212.959,-42.6632 212.757,-37.6674 212.757,-37.6674 212.757,-37.6674 212.959,-42.6632 208.26,-37.8497 213.162,-47.6591 213.162,-47.6591"/>
</g>
<!-- Ability -->
<g id="node12" class="node"><title>Ability</title>
<polygon fill="none" stroke="black" points="1174,-213 1114,-213 1114,-177 1174,-177 1174,-213"/>
<text text-anchor="middle" x="1144" y="-191.4" font-family="Times Roman,serif" font-size="14.00">Ability</text>
</g>
<!-- Admin -->
<g id="node13" class="node"><title>Admin</title>
<polygon fill="none" stroke="black" stroke-dasharray="1,5" points="1252,-213 1192,-213 1192,-177 1252,-177 1252,-213"/>
<text text-anchor="middle" x="1222" y="-191.4" font-family="Times Roman,serif" font-size="14.00">Admin</text>
</g>
<!-- Linker -->
<g id="node14" class="node"><title>Linker</title>
<ellipse fill="none" stroke="black" cx="471" cy="-19" rx="41.2167" ry="18.3848"/>
<text text-anchor="middle" x="471" y="-15.4" font-family="Times Roman,serif" font-size="14.00">Linker</text>
</g>
<!-- Issue -->
<g id="node15" class="node"><title>Issue</title>
<ellipse fill="none" stroke="black" cx="530" cy="-195" rx="36.7696" ry="18.3848"/>
<text text-anchor="middle" x="530" y="-191.4" font-family="Times Roman,serif" font-size="14.00">Issue</text>
</g>
<!-- Issue&#45;&gt;CurrentIssue -->
<g id="edge16" class="edge"><title>Issue&#45;&gt;CurrentIssue</title>
<path fill="none" stroke="black" d="M506.994,-172.218C490.458,-155.842 468.202,-133.802 451.363,-117.127"/>
<ellipse fill="none" stroke="black" cx="510.149" cy="-175.342" rx="4.00002" ry="4.00002"/>
<ellipse fill="black" stroke="black" cx="448.268" cy="-114.061" rx="4.00002" ry="4.00002"/>
</g>
<!-- Issue&#45;&gt;Linker -->
<g id="edge18" class="edge"><title>Issue&#45;&gt;Linker</title>
<path fill="none" stroke="black" d="M529.381,-168.225C527.981,-143.04 523.708,-104.717 511,-74 506.424,-62.9383 499.198,-52.0113 492.139,-42.8476"/>
<ellipse fill="none" stroke="black" cx="529.568" cy="-172.237" rx="4" ry="4"/>
<ellipse fill="black" stroke="black" cx="489.568" cy="-39.6333" rx="4.00002" ry="4.00002"/>
</g>
<!-- Issue&#45;&gt;Article -->
<g id="edge14" class="edge"><title>Issue&#45;&gt;Article</title>
<path fill="none" stroke="black" d="M547.197,-170.294C557.967,-154.822 571.83,-134.907 582.786,-119.166"/>
<ellipse fill="none" stroke="black" cx="544.652" cy="-173.95" rx="4.00002" ry="4.00002"/>
<polygon fill="black" stroke="black" points="582.823,-119.113 592.23,-113.477 585.68,-115.009 588.536,-110.906 588.536,-110.906 588.536,-110.906 585.68,-115.009 584.843,-108.335 582.823,-119.113 582.823,-119.113"/>
</g>
<!-- Category -->
<g id="node16" class="node"><title>Category</title>
<ellipse fill="none" stroke="black" cx="324" cy="-195" rx="56.0679" ry="18.3848"/>
<text text-anchor="middle" x="324" y="-191.4" font-family="Times Roman,serif" font-size="14.00">Category</text>
</g>
<!-- Category&#45;&gt;Navigator -->
<g id="edge22" class="edge"><title>Category&#45;&gt;Navigator</title>
<path fill="none" stroke="black" d="M315.883,-168.498C309.505,-143.802 302.802,-106.071 310,-74 312.084,-64.7155 315.921,-55.154 320.02,-46.6604"/>
<ellipse fill="none" stroke="black" cx="316.965" cy="-172.486" rx="4.00001" ry="4.00001"/>
<polygon fill="black" stroke="black" points="320.107,-46.4903 328.681,-39.6534 322.393,-42.0433 324.679,-37.5963 324.679,-37.5963 324.679,-37.5963 322.393,-42.0433 320.676,-35.5392 320.107,-46.4903 320.107,-46.4903"/>
</g>
<!-- Category&#45;&gt;Linker -->
<g id="edge24" class="edge"><title>Category&#45;&gt;Linker</title>
<path fill="none" stroke="black" d="M321.222,-168.358C319.909,-141.731 322.05,-100.974 343,-74 354.16,-59.6314 396.407,-43.1568 429.35,-32.0134"/>
<ellipse fill="none" stroke="black" cx="321.491" cy="-172.48" rx="4" ry="4"/>
<ellipse fill="black" stroke="black" cx="433.278" cy="-30.7045" rx="4.00001" ry="4.00001"/>
</g>
<!-- Category&#45;&gt;Article -->
<g id="edge20" class="edge"><title>Category&#45;&gt;Article</title>
<path fill="none" stroke="black" d="M369.27,-178.33C421.754,-159.004 507.582,-127.399 558.747,-108.559"/>
<ellipse fill="none" stroke="black" cx="365.399" cy="-179.755" rx="4.00001" ry="4.00001"/>
<polygon fill="black" stroke="black" points="558.806,-108.537 569.745,-109.305 563.498,-106.81 568.19,-105.082 568.19,-105.082 568.19,-105.082 563.498,-106.81 566.635,-100.859 558.806,-108.537 558.806,-108.537"/>
</g>
<!-- Article&#45;&gt;Tagging -->
<g id="edge32" class="edge"><title>Article&#45;&gt;Tagging</title>
<path fill="none" stroke="black" d="M630.085,-72.3047C643.675,-62.6349 659.876,-51.1078 673.729,-41.2507"/>
<ellipse fill="none" stroke="black" cx="626.57" cy="-74.8061" rx="4.00002" ry="4.00002"/>
<polygon fill="black" stroke="black" points="673.859,-41.1582 684.616,-39.0272 677.933,-38.2594 682.007,-35.3606 682.007,-35.3606 682.007,-35.3606 677.933,-38.2594 679.398,-31.694 673.859,-41.1582 673.859,-41.1582"/>
</g>
<!-- Article&#45;&gt;Navigator -->
<g id="edge30" class="edge"><title>Article&#45;&gt;Navigator</title>
<path fill="none" stroke="black" d="M556.811,-80.6604C510.973,-67.8603 439.248,-47.8316 390.06,-34.096"/>
<ellipse fill="none" stroke="black" cx="560.856" cy="-81.7899" rx="4.00001" ry="4.00001"/>
<polygon fill="black" stroke="black" points="389.862,-34.0407 381.441,-27.0169 385.046,-32.6959 380.23,-31.3511 380.23,-31.3511 380.23,-31.3511 385.046,-32.6959 379.02,-35.6853 389.862,-34.0407 389.862,-34.0407"/>
</g>
<!-- Article&#45;&gt;Ordering -->
<g id="edge26" class="edge"><title>Article&#45;&gt;Ordering</title>
<path fill="none" stroke="black" d="M594.868,-66.309C593.335,-59.6354 591.69,-52.4756 590.156,-45.7969"/>
<ellipse fill="none" stroke="black" cx="595.815" cy="-70.4282" rx="4.00001" ry="4.00001"/>
<ellipse fill="black" stroke="black" cx="589.184" cy="-41.5658" rx="4.00001" ry="4.00001"/>
</g>
<!-- Article&#45;&gt;Linker -->
<g id="edge28" class="edge"><title>Article&#45;&gt;Linker</title>
<path fill="none" stroke="black" d="M568.047,-74.242C548.266,-62.9819 523.203,-48.7155 503.503,-37.5015"/>
<ellipse fill="none" stroke="black" cx="571.529" cy="-76.224" rx="4.00002" ry="4.00002"/>
<ellipse fill="black" stroke="black" cx="499.983" cy="-35.4981" rx="4.00002" ry="4.00002"/>
</g>
</g>
</svg>
